Simulation
nRows=23
nColumns=15
endheader
time  TH_x TH_y TH_z SC_y  SC_z  SC_x  AC_y  AC_z  AC_x  GH_y  GH_z  GH_yy  EL_x  PS_y
1.3499999999999996  0.000000  0.000000  0.000000  -32.547706452253344  13.888524636243911  17.26656891087895  66.37304132442475  14.11358361080529  -0.3258599344219698  -21.282283407986498  56.633619879865684  -8.825966057396728  21.3478775702569  120.000000
1.3769999999999996  0.000000  0.000000  0.000000  -32.72879177764326  13.886976640737245  17.558818493511406  66.50923405771739  13.995323542892656  -0.33878607602639016  -21.323300132745594  56.39199765961568  -8.978743067900314  21.441704455663036  120.000000
1.4039999999999997  0.000000  0.000000  0.000000  -32.81094993364176  13.8463087909751  17.790720001569046  66.59387059450356  13.832720742938655  -0.43158673675559395  -21.31949245365798  56.11327993510205  -9.122480871323297  21.518327063306195  120.000000
1.4309999999999996  0.000000  0.000000  0.000000  -32.79665403996798  13.770093256732782  17.95575190165965  66.6263588141445  13.634788964897428  -0.5967756476066228  -21.27228511595983  55.799275762065584  -9.256284668506572  21.575958833881643  120.000000
1.4579999999999995  0.000000  0.000000  0.000000  -32.691152249650756  13.66211139158288  18.04890443017257  66.60677099651461  13.41046672134538  -0.826034498247503  -21.1824900161654  55.45186729120398  -9.381385872138758  21.613560279340003  120.000000
1.4849999999999997  0.000000  0.000000  0.000000  -32.502233687307815  13.526319847939344  18.066738681155414  66.53574495612939  13.168384545527854  -1.110472799517968  -21.050152662423038  55.072990819896525  -9.501120240372044  21.630847346113846  120.000000
1.5119999999999996  0.000000  0.000000  0.000000  -32.23931156912582  13.366724161353732  18.00721868734464  66.41438180761342  12.91657093290017  -1.4409162819169847  -20.874571050606345  54.664596269148745  -9.62079201217947  21.628055099506987  120.000000
1.5389999999999995  0.000000  0.000000  0.000000  -31.911919854897263  13.187175188281952  17.869326545387956  66.24386729507115  12.662072258425315  -1.8083489730342726  -20.65427384897248  54.22861684147274  -9.747076016738946  21.605650250442572  120.000000
1.5659999999999996  0.000000  0.000000  0.000000  -31.528181367561572  12.991097570357017  17.65268080639397  66.02534029199657  12.410656875251894  -2.204285101317708  -20.387219026566896  53.76685288449169  -9.887499264486301  21.56401654917261  120.000000
1.5929999999999995  0.000000  0.000000  0.000000  -31.09355777578225  12.78121526910508  17.357257493745617  65.75964034083569  12.166597051064658  -2.6211102200045855  -20.071070076879014  53.28089733161617  -10.049661327938184  21.50323891568459  120.000000
1.6199999999999997  0.000000  0.000000  0.000000  -30.6105052813045  12.559337376439126  16.98337331117421  65.4474974103211  11.932673471485119  -3.0522561721716857  -19.70366666755498  52.772045459539925  -10.240592517919449  21.42309535029225  120.000000
1.6469999999999996  0.000000  0.000000  0.000000  -30.079053057157275  12.326206367369936  16.531917884845083  65.08966977291217  11.710313877533792  -3.4923297196854923  -19.28347235503786  52.24119998056927  -10.465873122736497  21.323302024403105  120.000000
1.6739999999999995  0.000000  0.000000  0.000000  -29.49826528043718  12.081392473607533  16.004720252483082  64.68744641428627  11.49982687998543  -3.9371583966342802  -18.810048596833724  51.68876479402813  -10.728891473231773  21.203934990339437  120.000000
1.7009999999999996  0.000000  0.000000  0.000000  -28.86789442779561  11.823224229640442  15.404894846625144  64.2429258165161  11.30056917045852  -4.383885897721289  -18.284297823726504  51.11465207692697  -11.02992295082998  21.06594347463759  120.000000
1.7279999999999995  0.000000  0.000000  0.000000  -28.18998288809601  11.54878079252687  14.737032116892124  63.7594453087864  11.111021911706718  -4.830948827511293  -17.708563705255827  50.51836961920552  -11.365573296731908  20.91154615791316  120.000000
1.7549999999999994  0.000000  0.000000  0.000000  -27.469619465655637  11.253991504681819  14.00725149920894  63.24154801817814  10.928820258267903  -5.277998208738261  -17.086462675048747  49.89923512766958  -11.728505182942515  20.744365670470277  120.000000
1.7819999999999996  0.000000  0.000000  0.000000  -26.714861278898262  10.934008432014357  13.223113422218349  62.69490574618777  10.750804118999117  -5.725556838352771  -16.422675235506762  49.25665560543362  -12.108031920469527  20.56906112996443  120.000000
1.8089999999999995  0.000000  0.000000  0.000000  -25.935630824606985  10.583799188005877  12.393384496067437  62.125728605523015  10.573102844077127  -6.174734016791839  -15.722576781226618  48.59039509008007  -12.491059704027265  20.39065232624302  120.000000
1.8359999999999994  0.000000  0.000000  0.000000  -25.142394657858404  10.198821025551277  11.527522774810455  61.540244751727904  10.391109492214483  -6.626734180442054  -14.99183102887721  47.90064272507269  -12.863398355070007  20.213659873216155  120.000000
1.8629999999999995  0.000000  0.000000  0.000000  -24.34470751577969  9.775445529370813  10.635632106662042  60.94372078096769  10.199125807273795  -7.082643143989085  -14.23592750608512  47.18800769789163  -13.210778966578063  20.041429629065725  120.000000
1.8899999999999995  0.000000  0.000000  0.000000  -23.550403607215483  9.311636245953933  9.728393009135564  60.34008892989914  9.990080479353702  -7.543434802470896  -13.459978819302803  46.453432004270724  -13.51978190754255  19.875654296144166  120.000000
1.9169999999999996  0.000000  0.000000  0.000000  -22.76538799267513  8.807089893631519  8.816814352722515  59.731604511022475  9.75599872008114  -8.009893068373929  -12.668615548100746  45.69809664144193  -13.7781640112756  19.716439602626746  120.000000
1.9439999999999995  0.000000  0.000000  0.000000  -21.994224257810043  8.263148036148166  7.911916287341944  59.11940831107924  9.48865717678571  -8.482400338989248  -11.865984578050933  44.923148979592675  -13.975013188725448  19.56275777183518  120.000000
